<svg xmlns="http://www.w3.org/2000/svg" viewBox="-60 -60 120 120">
  <g transform="rotate(0) translate(-30, 0)">
    <path
      d="M25,0 Q15,20 25,40 Q35,20 25,0"
      stroke="#61DAF8"
      fill="#61DAF8"
    />
    <path
      d="M25,40 Q35,45 25,50 Q15,45 25,40"
      stroke="#61DAF8"
      fill="#61DAF8"
    />
  </g>
  <g transform="rotate(120) translate(-30, 0)">
    <path
      d="M25,0 Q15,20 25,40 Q35,20 25,0"
      stroke="#61DAF8"
      fill="#61DAF8"
    />
    <path
      d="M25,40 Q35,45 25,50 Q15,45 25,40"
      stroke="#61DAF8"
      fill="#61DAF8"
    />
  </g>
  <g transform="rotate(240) translate(-30, 0)">
    <path
      d="M25,0 Q15,20 25,40 Q35,20 25,0"
      stroke="#61DAF8"
      fill="#61DAF8"
    />
    <path
      d="M25,40 Q35,45 25,50 Q15,45 25,40"
      stroke="#61DAF8"
      fill="#61DAF8"
    />
  </g>
</svg>
